<?xml version="1.0" encoding="UTF-8" standalone="no"?>
<!DOCTYPE svg PUBLIC "-//W3C//DTD SVG 1.1//EN" "http://www.w3.org/Graphics/SVG/1.1/DTD/svg11.dtd">
<svg width="100%" height="100%" viewBox="0 0 639 223" version="1.1" xmlns="http://www.w3.org/2000/svg" xmlns:xlink="http://www.w3.org/1999/xlink" xml:space="preserve" xmlns:serif="http://www.serif.com/" style="fill-rule:evenodd;clip-rule:evenodd;stroke-linejoin:round;stroke-miterlimit:2;">
    <g id="Artboard1" transform="matrix(1,0,0,1,-468.923,-1069.67)">
        <rect x="468.923" y="1069.67" width="638.369" height="222.394" style="fill:none;"/>
        <clipPath id="_clip1">
            <rect x="468.923" y="1069.67" width="638.369" height="222.394"/>
        </clipPath>
        <g clip-path="url(#_clip1)">
            <g transform="matrix(1,0,0,1,242.077,14.017)">
                <path d="M420.246,1092.55C413.87,1092.24 405.715,1092.04 399.383,1091.38C389.536,1090.36 383.362,1088.82 374.111,1087.86C369.337,1087.37 365.807,1089.41 365.591,1091.5C365.405,1093.29 368.471,1095.72 371.63,1097.25C383.103,1102.97 391.036,1104.99 382.648,1121.92C371.255,1144.57 331.991,1215 329.109,1219.53C328.718,1220.39 326.928,1220.2 326.423,1219.25C320.776,1203.88 297.067,1121.2 294.105,1106.12C292.583,1097.51 292.717,1093.3 306.516,1091.11C312.042,1090.18 314.378,1088.01 314.625,1085.62C314.842,1083.53 311.745,1081.4 307.866,1081C301.002,1080.29 282.408,1079.27 272.263,1078.22C257.641,1076.7 242.875,1073.67 236.907,1073.05C232.431,1072.58 228.068,1073.94 227.79,1076.63C227.45,1079.91 231.504,1081.54 234.992,1082.8C248.019,1088.07 251.846,1094.8 256.629,1109.78C265.156,1138.1 282.447,1195.39 289.781,1223.6C296.178,1246.28 299.757,1264.14 300.569,1270.86C300.95,1273.01 303.11,1278.36 306.393,1278.7C309.377,1279.01 313.72,1274.93 315.253,1271.78C323.106,1254.19 331.402,1238.16 343.69,1215.61C366.168,1173.3 388.409,1139.11 396.488,1125.16C404.598,1111.75 410.95,1106.07 421.99,1103.65C423.727,1115.87 425.918,1133.95 428.152,1154.89C430.859,1180.24 433.534,1205.3 434.196,1228.46C434.619,1238.07 431.421,1242.03 418.145,1247.67C414.395,1249.28 411.304,1251.42 411.495,1253.21C411.782,1255.89 414.093,1257.76 421.551,1256.96C424.832,1256.61 439.62,1253.83 450.06,1252.71C464.677,1251.15 477.994,1251.54 488.435,1250.43C492.014,1250.05 497.555,1248.25 497.204,1244.97C496.981,1242.88 494.67,1241.01 489.44,1240.06C475.336,1237.95 472.929,1235.19 470.665,1222.46C468.273,1208.53 463.441,1168.92 463.433,1163.19C463.572,1161.66 465.203,1159.98 466.396,1159.86C472.064,1159.25 478.849,1160.64 481.129,1162.2C483.674,1163.44 488.849,1169.53 492.012,1173.71C506.833,1193.86 524.658,1216.69 534.221,1227.14C541.409,1235.12 554.189,1244.62 581.335,1241.72C584.034,1241.43 590.315,1240.47 595.428,1239.13C593.206,1247.13 590.131,1250.76 573.378,1251.97C570.03,1252.16 564.749,1253.33 564.42,1256.01C564.092,1258.69 568.005,1261.29 573.365,1261.94C578.13,1262.53 585.349,1262.81 596.033,1264.42C609.396,1266.36 642.078,1270.96 650.416,1271.99C662.326,1273.45 689.789,1273.79 705.322,1265.42C720.783,1257.64 733.515,1244.99 735.923,1225.34C739.098,1199.43 725.699,1182.98 706.211,1171.83C705.318,1171.72 705.348,1169 706.278,1168.82C714.975,1164.44 731.663,1156.51 734.436,1133.88C734.479,1133.53 734.518,1133.18 734.553,1132.84C734.683,1133.41 734.826,1133.98 734.98,1134.56C741.588,1159.17 760.881,1170.29 794.061,1181.25C823.957,1191.01 832.734,1200.51 835.852,1212.12C840.604,1229.82 827.239,1244.08 814.519,1247.5C800.416,1251.28 782.075,1247.02 769.25,1232.38C762.801,1224.92 756.594,1219.47 754.382,1220.06C753,1220.43 750.997,1225.12 751.517,1227.06C753.67,1235.08 759.352,1246.3 764.088,1255.11C764.46,1256.49 770.996,1260.96 773.506,1261.47C786.031,1262.85 798.941,1262.35 815.256,1257.97C828.529,1254.41 843.454,1245.95 851.297,1237.62C864.736,1223.64 868.577,1204.82 864.716,1190.44C860.187,1173.57 848.798,1157.65 809.217,1146.05C780.097,1136.97 765.554,1131.38 761.173,1115.07C756.347,1097.1 768.66,1082.23 781.657,1078.74C790.229,1076.44 797.736,1076.79 805.858,1080.54C809.919,1082.41 817.805,1088.6 823.02,1096.98C825.517,1100.76 830.535,1101.78 832.747,1101.19C834.407,1100.74 834.568,1098.03 833.454,1093.88C833.157,1092.78 824.675,1072.23 823.709,1068.63C823.062,1067.32 819.81,1064.05 818.555,1063.79C810.792,1064.69 795.245,1065.31 782.525,1068.72C760.679,1074.59 749.168,1083.61 742.121,1093.8C737.746,1099.85 734.356,1108.24 733.525,1117.58C731.37,1109.14 726.411,1101.32 718.079,1094.7C709.84,1087.95 693.566,1082.63 676.295,1080.51C664.086,1079.02 627.502,1076.65 617.974,1075.48L598.321,1073.08C594.45,1072.6 590.098,1073.58 589.806,1075.96C589.405,1079.24 592.759,1081.46 596.557,1082.53C611.677,1087.4 613.172,1090.01 613.858,1096.74C614.24,1101.02 613.571,1116.35 610.469,1141.66C604.887,1187.22 600.195,1215.2 597.722,1228.42C589.203,1227.39 580.769,1224.54 572.3,1216.43C555.538,1200.72 526.682,1162.17 519.741,1150.84C519.017,1149.71 518.463,1147.36 519.891,1146.6C523.845,1144.07 529.759,1140.12 530.856,1139.1C542.867,1127.25 549.381,1114.79 547.662,1098.68C546.197,1084.96 537.807,1071.38 527.764,1064.9C512.171,1054.5 488.179,1055.86 474.457,1057.32C458.349,1059.04 433.749,1063.17 422.712,1064.35C416.447,1065.02 410.183,1065.69 400.935,1066.68C395.864,1067.22 392.507,1069.69 392.73,1071.78C392.985,1074.16 396.489,1075.9 400.793,1076.65C415.164,1078.43 418.326,1082.62 419.687,1089.72C419.859,1090.5 420.046,1091.45 420.246,1092.55ZM696.326,1222.91C693.261,1247.92 673.655,1264.86 654.597,1262.53C649.237,1261.87 641.484,1256.08 637.078,1250.1C635.286,1247.46 634.381,1242.52 634.375,1240.1C634.874,1231.09 638.359,1195.25 639.605,1187.55C641.028,1175.93 642.699,1174.63 643.702,1173.84C644.705,1173.06 649.913,1172.49 654.082,1173C664.206,1174.24 672.623,1177.08 678.997,1181.79C691.26,1190.25 698.442,1205.63 696.326,1222.91ZM699.159,1133.18C697.736,1144.8 691.433,1154.3 681.399,1159.72C673.596,1164.21 656.44,1163.62 645.721,1162.3C643.934,1162.08 642.737,1159.52 642.883,1158.33C649.013,1108.3 650.666,1099.74 651.846,1095.05C652.362,1093.3 654.477,1090.84 655.109,1090.61C658.494,1090.12 663.964,1089.88 665.75,1090.1C687.19,1092.73 702.187,1108.47 699.159,1133.18ZM511.054,1106.21C512.837,1122.92 505.333,1134.58 497.916,1141.4C494.857,1143.84 481.613,1149.78 466.399,1151.41C464.908,1151.57 462.628,1150 462.139,1148.24C460.118,1140.61 455.738,1088.28 455.55,1078.04C455.69,1076.52 457.065,1072.45 458.461,1071.4C460.72,1069.95 468.381,1068.23 469.574,1068.1C477.628,1067.24 487.226,1069.53 494.851,1075.96C506.108,1085.32 510.226,1098.46 511.054,1106.21Z" style="fill:url(#_Linear2);fill-rule:nonzero;"/>
            </g>
        </g>
    </g>
    <defs>
        <linearGradient id="_Linear2" x1="0" y1="0" x2="1" y2="0" gradientUnits="userSpaceOnUse" gradientTransform="matrix(637.446,-221.724,221.724,637.446,227.77,1278.05)"><stop offset="0" style="stop-color:rgb(0,163,255);stop-opacity:1"/><stop offset="0.5" style="stop-color:rgb(18,0,255);stop-opacity:1"/><stop offset="1" style="stop-color:rgb(255,0,231);stop-opacity:1"/></linearGradient>
    </defs>
</svg>
